<svg width="1600" height="900" viewBox="0 0 1600 900" fill="none" xmlns="http://www.w3.org/2000/svg">
  <rect width="1600" height="900" fill="#F4F7FB"/>
  <text x="48" y="72" fill="#1D2B53" font-family="Arial, sans-serif" font-size="44" font-weight="700">Appointment Scheduling Agent</text>
  <text x="48" y="122" fill="#58677C" font-family="Arial, sans-serif" font-size="28">Find availability, confirm a booking, or reschedule with backend-backed slot data.</text>

  <defs>
    <filter id="shadow" x="-20%" y="-20%" width="140%" height="140%">
      <feDropShadow dx="0" dy="8" stdDeviation="12" flood-color="#D9E4F2" flood-opacity="0.9"/>
    </filter>
    <marker id="arrowBlue" markerWidth="24" markerHeight="24" refX="0" refY="12" orient="auto" markerUnits="userSpaceOnUse">
      <path d="M0 0L24 12L0 24V0Z" fill="#2E86AB"/>
    </marker>
  </defs>

  <rect x="48" y="200" width="340" height="330" rx="26" fill="white" stroke="#BCD8F0" stroke-width="4" filter="url(#shadow)"/>
  <circle cx="145" cy="320" r="58" fill="#DCEBFA"/>
  <circle cx="145" cy="296" r="22" fill="#2E86AB"/>
  <path d="M95 385C95 351.863 121.863 325 155 325H135C101.863 325 75 351.863 75 385V400H215V385C215 351.863 188.137 325 155 325H135C121.863 325 95 351.863 95 385Z" fill="#2E86AB"/>
  <text x="95" y="450" fill="#1D2B53" font-family="Arial, sans-serif" font-size="34" font-weight="700">Caller</text>
  <text x="95" y="495" fill="#58677C" font-family="Arial, sans-serif" font-size="24">Requests booking help</text>

  <rect x="610" y="170" width="410" height="390" rx="28" fill="#E7F7F3" stroke="#6EC9B8" stroke-width="4" filter="url(#shadow)"/>
  <rect x="700" y="235" width="230" height="130" rx="22" fill="white"/>
  <rect x="745" y="270" width="62" height="62" rx="31" fill="#76CDBD"/>
  <rect x="840" y="275" width="88" height="10" rx="5" fill="#1D2B53"/>
  <rect x="840" y="305" width="88" height="10" rx="5" fill="#1D2B53"/>
  <text x="668" y="460" fill="#1D2B53" font-family="Arial, sans-serif" font-size="36" font-weight="700">Clara AI Agent</text>
  <text x="668" y="505" fill="#58677C" font-family="Arial, sans-serif" font-size="24">Schedules and reschedules</text>

  <rect x="1160" y="190" width="392" height="320" rx="26" fill="white" stroke="#BCD8F0" stroke-width="4" filter="url(#shadow)"/>
  <rect x="1250" y="250" width="212" height="120" rx="18" fill="#EAF6EC" stroke="#8AD29A" stroke-width="4"/>
  <path d="M1298 312L1352 366L1460 258" stroke="#2F8F3B" stroke-width="16" stroke-linecap="round" stroke-linejoin="round"/>
  <text x="1208" y="450" fill="#1D2B53" font-family="Arial, sans-serif" font-size="27" font-weight="700">Appointment Management</text>
  <text x="1208" y="495" fill="#58677C" font-family="Arial, sans-serif" font-size="24">Lookup and scheduling</text>

  <rect x="1120" y="650" width="360" height="170" rx="26" fill="white" stroke="#BCD8F0" stroke-width="4" filter="url(#shadow)"/>
  <circle cx="1210" cy="735" r="40" fill="#DCEBFA"/>
  <circle cx="1210" cy="720" r="16" fill="#2E86AB"/>
  <path d="M1178 775C1178 751.804 1196.8 733 1220 733H1200C1176.8 733 1158 751.804 1158 775V785H1262V775C1262 751.804 1243.2 733 1220 733H1200C1196.8 733 1178 751.804 1178 775Z" fill="#2E86AB"/>
  <text x="1290" y="735" fill="#1D2B53" font-family="Arial, sans-serif" font-size="32" font-weight="700">Human</text>
  <text x="1290" y="775" fill="#1D2B53" font-family="Arial, sans-serif" font-size="32" font-weight="700">Agent</text>

  <line x1="388" y1="365" x2="598" y2="365" stroke="#2E86AB" stroke-width="8" marker-end="url(#arrowBlue)"/>
  <rect x="435" y="310" width="132" height="52" rx="26" fill="#1E5A8A"/>
  <text x="467" y="344" fill="white" font-family="Arial, sans-serif" font-size="22" font-weight="700">book</text>

  <line x1="1020" y1="355" x2="1148" y2="355" stroke="#2E86AB" stroke-width="8" marker-end="url(#arrowBlue)"/>
  <rect x="1048" y="300" width="104" height="52" rx="26" fill="#1E5A8A"/>
  <text x="1072" y="334" fill="white" font-family="Arial, sans-serif" font-size="22" font-weight="700">query</text>

  <path d="M1160 270C1126 238 1092 238 1044 260" stroke="#2E86AB" stroke-width="8" fill="none" marker-end="url(#arrowBlue)"/>
  <rect x="1018" y="176" width="128" height="52" rx="26" fill="#1E5A8A"/>
  <text x="1042" y="210" fill="white" font-family="Arial, sans-serif" font-size="22" font-weight="700">response</text>

  <path d="M1018 548C1050 594 1082 656 1112 735" stroke="#2E86AB" stroke-width="8" fill="none" marker-end="url(#arrowBlue)"/>
  <rect x="1038" y="600" width="132" height="52" rx="26" fill="#1E5A8A"/>
  <text x="1061" y="634" fill="white" font-family="Arial, sans-serif" font-size="22" font-weight="700">escalate</text>
</svg>
