<svg width="1600" height="900" viewBox="0 0 1600 900" fill="none" xmlns="http://www.w3.org/2000/svg">
  <rect width="1600" height="900" fill="#F4F7FB"/>
  <text x="48" y="72" fill="#1D2B53" font-family="Arial, sans-serif" font-size="44" font-weight="700">Order Tracking Agent</text>
  <text x="48" y="122" fill="#58677C" font-family="Arial, sans-serif" font-size="28">Track order status, delivery progress, and delays from backend order data.</text>

  <defs>
    <filter id="shadow" x="-20%" y="-20%" width="140%" height="140%">
      <feDropShadow dx="0" dy="8" stdDeviation="12" flood-color="#D9E4F2" flood-opacity="0.9"/>
    </filter>
    <marker id="arrowBlue" markerWidth="18" markerHeight="18" refX="0" refY="9" orient="auto" markerUnits="userSpaceOnUse">
      <path d="M0 0L18 9L0 18V0Z" fill="#2E86AB"/>
    </marker>
  </defs>

  <rect x="48" y="210" width="340" height="320" rx="26" fill="white" stroke="#BCD8F0" stroke-width="4" filter="url(#shadow)"/>
  <circle cx="145" cy="318" r="58" fill="#DCEBFA"/>
  <circle cx="145" cy="294" r="22" fill="#2E86AB"/>
  <path d="M95 383C95 349.863 121.863 323 155 323H135C101.863 323 75 349.863 75 383V398H215V383C215 349.863 188.137 323 155 323H135C121.863 323 95 349.863 95 383Z" fill="#2E86AB"/>
  <text x="95" y="448" fill="#1D2B53" font-family="Arial, sans-serif" font-size="34" font-weight="700">Caller</text>
  <text x="95" y="493" fill="#58677C" font-family="Arial, sans-serif" font-size="24">Requests order status</text>

  <rect x="620" y="180" width="400" height="380" rx="28" fill="#E7F7F3" stroke="#6EC9B8" stroke-width="4" filter="url(#shadow)"/>
  <rect x="710" y="240" width="220" height="126" rx="22" fill="white"/>
  <rect x="756" y="282" width="64" height="64" rx="32" fill="#76CDBD"/>
  <rect x="848" y="286" width="88" height="10" rx="5" fill="#1D2B53"/>
  <rect x="848" y="318" width="88" height="10" rx="5" fill="#1D2B53"/>
  <text x="690" y="460" fill="#1D2B53" font-family="Arial, sans-serif" font-size="36" font-weight="700">Nora AI Agent</text>
  <text x="690" y="505" fill="#58677C" font-family="Arial, sans-serif" font-size="24">Interprets tracking updates</text>

  <rect x="1160" y="200" width="392" height="300" rx="26" fill="white" stroke="#BCD8F0" stroke-width="4" filter="url(#shadow)"/>
  <rect x="1250" y="255" width="212" height="116" rx="18" fill="#EAF6EC" stroke="#8AD29A" stroke-width="4"/>
  <path d="M1298 315L1352 366L1456 264" stroke="#2F8F3B" stroke-width="16" stroke-linecap="round" stroke-linejoin="round"/>
  <text x="1210" y="442" fill="#1D2B53" font-family="Arial, sans-serif" font-size="30" font-weight="700">Order Management</text>
  <text x="1210" y="484" fill="#58677C" font-family="Arial, sans-serif" font-size="24">Tracking and fulfillment</text>

  <rect x="1128" y="660" width="360" height="170" rx="26" fill="white" stroke="#BCD8F0" stroke-width="4" filter="url(#shadow)"/>
  <circle cx="1218" cy="745" r="40" fill="#DCEBFA"/>
  <circle cx="1218" cy="730" r="16" fill="#2E86AB"/>
  <path d="M1186 785C1186 761.804 1204.8 743 1228 743H1208C1184.8 743 1166 761.804 1166 785V795H1270V785C1270 761.804 1251.2 743 1228 743H1208C1204.8 743 1186 761.804 1186 785Z" fill="#2E86AB"/>
  <text x="1298" y="745" fill="#1D2B53" font-family="Arial, sans-serif" font-size="32" font-weight="700">Human</text>
  <text x="1298" y="785" fill="#1D2B53" font-family="Arial, sans-serif" font-size="32" font-weight="700">Agent</text>

  <line x1="388" y1="360" x2="608" y2="360" stroke="#2E86AB" stroke-width="8" marker-end="url(#arrowBlue)"/>
  <rect x="442" y="304" width="132" height="52" rx="26" fill="#1E5A8A"/>
  <text x="477" y="338" fill="white" font-family="Arial, sans-serif" font-size="22" font-weight="700">track</text>

  <line x1="1020" y1="354" x2="1148" y2="354" stroke="#2E86AB" stroke-width="8" marker-end="url(#arrowBlue)"/>
  <rect x="1058" y="298" width="100" height="52" rx="26" fill="#1E5A8A"/>
  <text x="1082" y="332" fill="white" font-family="Arial, sans-serif" font-size="22" font-weight="700">query</text>

  <path d="M1160 272C1126 240 1092 240 1044 262" stroke="#2E86AB" stroke-width="8" fill="none" marker-end="url(#arrowBlue)"/>
  <rect x="1028" y="178" width="128" height="52" rx="26" fill="#1E5A8A"/>
  <text x="1052" y="212" fill="white" font-family="Arial, sans-serif" font-size="22" font-weight="700">response</text>

  <path d="M1018 548C1050 594 1082 656 1112 735" stroke="#2E86AB" stroke-width="8" fill="none" marker-end="url(#arrowBlue)"/>
  <rect x="1044" y="604" width="132" height="52" rx="26" fill="#1E5A8A"/>
  <text x="1068" y="638" fill="white" font-family="Arial, sans-serif" font-size="22" font-weight="700">escalate</text>
</svg>
