<svg xmlns="http://www.w3.org/2000/svg" width="900" height="480" viewBox="0 0 900 480" role="img" aria-labelledby="title desc">
  <title id="title">Workflow Specialization</title>
  <desc id="desc">A dark card showing workflow specialization as an advantage of multi-agent systems.</desc>
  <rect width="900" height="480" fill="#07182b"/>
  <path d="M70 54 H830 V426 H70 Z" fill="none" stroke="#ffd600" stroke-width="8"/>
  <path d="M548 400 C646 400 760 397 812 385 C827 350 830 309 830 260" fill="none" stroke="#ffd600" stroke-width="8" stroke-linecap="round"/>
  <g fill="none" stroke="#ffd600" stroke-width="10" stroke-linecap="round" stroke-linejoin="round">
    <circle cx="397" cy="157" r="36"/>
    <path d="M397 93 V72 M397 242 V220 M333 157 H312 M482 157 H461 M352 112 L337 97 M457 112 L472 97 M352 202 L337 217 M457 202 L472 217"/>
    <circle cx="502" cy="209" r="24"/>
    <path d="M502 158 V143 M502 274 V259 M451 209 H436 M568 209 H553 M466 173 L455 162 M538 173 L549 162 M466 245 L455 256 M538 245 L549 256"/>
    <path d="M303 177 C275 135 276 87 312 57"/>
    <path d="M571 126 C601 160 599 211 570 243"/>
    <path d="M312 57 L320 101 M312 57 L354 60"/>
    <path d="M570 243 L559 201 M570 243 L527 244"/>
  </g>
  <text x="450" y="315" fill="#f5f7fb" font-family="Arial, Helvetica, sans-serif" font-size="48" font-weight="700" text-anchor="middle">Workflow</text>
  <text x="450" y="370" fill="#f5f7fb" font-family="Arial, Helvetica, sans-serif" font-size="48" font-weight="700" text-anchor="middle">Specialization</text>
</svg>
